<?xml version="1.0" standalone="no"?>
<!DOCTYPE svg PUBLIC "-//W3C//DTD SVG 20010904//EN"
 "http://www.w3.org/TR/2001/REC-SVG-20010904/DTD/svg10.dtd">
<svg version="1.0" xmlns="http://www.w3.org/2000/svg"
 width="100.000000pt" height="100.000000pt" viewBox="0 0 100.000000 100.000000"
 preserveAspectRatio="xMidYMid meet">

<g transform="translate(0.000000,100.000000) scale(0.100000,-0.100000)"
fill="#000000" stroke="none">
<path d="M226 874 c-14 -13 -16 -61 -16 -374 0 -313 2 -361 16 -374 23 -24
525 -24 548 0 14 13 16 52 18 252 1 130 3 264 4 297 5 92 -6 183 -23 200 -22
23 -524 22 -547 -1z m534 -374 l0 -360 -260 0 -260 0 0 360 0 360 260 0 260 0
0 -360z"/>
<path d="M404 544 c5 -20 1 -33 -17 -53 -14 -14 -28 -36 -32 -48 l-6 -23 151
0 151 0 -6 23 c-4 12 -18 34 -32 48 -18 20 -22 33 -17 53 7 30 -8 35 -28 8
-19 -25 -125 -25 -139 1 -16 27 -32 21 -25 -9z m48 -69 c0 -5 -5 -11 -11 -13
-6 -2 -11 4 -11 13 0 9 5 15 11 13 6 -2 11 -8 11 -13z m118 0 c0 -8 -7 -15
-15 -15 -16 0 -20 12 -8 23 11 12 23 8 23 -8z"/>
</g>
</svg>
